<?xml version="1.0" encoding="utf-8"?><svg xmlns="http://www.w3.org/2000/svg" xmlns:xlink="http://www.w3.org/1999/xlink"><symbol viewBox="0 0 127.999 128" id="dribble" xmlns="http://www.w3.org/2000/svg"><path class="ast0" d="M28.746 63.955v.099a35.16 35.16 0 0 0 8.187 22.561c2.774-4.31 12.542-17.776 29.301-23.193.117-.04.235-.078.354-.116a120.206 120.206 0 0 0-2.075-4.324c-15.87 4.611-31.187 4.975-35.56 4.975-.071-.002-.141-.002-.207-.002zm31.773-12.383c-5.206-9.11-10.547-16.698-12.248-19.063-9.228 4.622-16.047 13.152-18.504 23.12 4.363-.037 16.699-.487 30.752-4.057zm24.253 17.104c-2.113 0-4.192.133-6.197.396 3.802 10.696 5.691 19.573 6.395 23.312 7.145-5.307 12.073-13.163 13.696-21.868-2.033-.566-7.338-1.84-13.894-1.84zM57.224 29.453c2.12 2.929 7.33 10.369 12.27 19.329 10.292-4.038 15.523-9.655 17.183-11.708a35.177 35.177 0 0 0-22.67-8.278c-2.286 0-4.561.221-6.783.657zm34.843 13.282c-2.174 2.575-8.056 8.575-18.883 13.2a118.845 118.845 0 0 1 1.967 4.345c.167.396.333.789.496 1.183a69.397 69.397 0 0 1 7.721-.413c7.096 0 13.177.947 15.858 1.44a35.358 35.358 0 0 0-7.159-19.755zM77.046 96.811c-.688-3.807-2.753-13.823-7.202-25.609-17.6 6.354-25.024 17.929-26.816 21.173 6.104 4.542 13.339 6.938 20.979 6.938a34.906 34.906 0 0 0 13.039-2.502z"/><path class="ast0" d="M64.006 7.989c-30.885 0-56.011 25.126-56.011 56.01 0 30.885 25.126 56.012 56.011 56.012 30.884 0 56.01-25.127 56.01-56.012 0-30.884-25.126-56.01-56.01-56.01zm0 99.459c-23.957 0-43.448-19.492-43.448-43.451 0-23.956 19.491-43.446 43.448-43.446s43.448 19.49 43.448 43.446c0 23.959-19.491 43.451-43.448 43.451z"/></symbol><symbol viewBox="0 0 56.693 56.693" id="facebook" xmlns="http://www.w3.org/2000/svg"><path d="M40.43 21.739h-7.645v-5.014c0-1.883 1.248-2.322 2.127-2.322h5.395V6.125l-7.43-.029c-8.248 0-10.125 6.174-10.125 10.125v5.518h-4.77v8.53h4.77v24.137h10.033V30.269h6.77l.875-8.53z"/></symbol><symbol viewBox="0 0 896 1024" id="gear" xmlns="http://www.w3.org/2000/svg"><path d="M447.938 350C358.531 350 286 422.531 286 512c0 89.375 72.531 162.062 161.938 162.062 89.438 0 161.438-72.688 161.438-162.062-.001-89.469-72.001-162-161.438-162zm324.687 255.062l-29.188 70.312 52.062 102.25 6.875 13.5-72.188 72.188-118.436-55.937-70.312 28.875L505.75 945.5l-4.562 14.5H399.156L355 836.688l-70.312-29-102.404 51.938-13.5 6.75-72.156-72.125 55.875-118.5-28.969-70.25-109.065-35.626L0 565.188V463.219L123.406 419l28.969-70.188-51.906-102.469-6.844-13.438 72.062-72.062 118.594 55.844 70.219-29.031 35.656-109.188L394.75 64h102l44.188 123.469 70.125 29.031L713.5 164.531l13.625-6.844 72.125 72.062-55.875 118.406L772.25 418.5l109.375 35.656L896 458.75v101.938l-123.375 44.374z"/></symbol><symbol viewBox="0 0 16 16" id="pen" xmlns="http://www.w3.org/2000/svg"><path d="M1 11.95L5 16H1zM8 4l4 4-6.021 7.044L2 11zm2.085-2.219c.624-.624 1.824-.438 2.68.418l.774.774c.855.855 1.042 2.055.417 2.68L12.72 6.888 8.85 3.017zm0 0" fill-rule="evenodd"/></symbol><symbol viewBox="0 0 24 24" id="person" xmlns="http://www.w3.org/2000/svg"><circle cx="12" cy="8" r="4"/><path d="M12 14c-6.1 0-8 4-8 4v2h16v-2s-1.9-4-8-4z"/></symbol><symbol viewBox="0 0 56.693 56.693" id="rss" xmlns="http://www.w3.org/2000/svg"><path d="M3.428 31.085c6.19 0 12.009 2.418 16.382 6.816 4.381 4.398 6.793 10.256 6.793 16.492h9.539c0-18.113-14.676-32.848-32.714-32.848v9.54zm.015-16.911c22.061 0 40.01 18.047 40.01 40.231h9.539c0-27.445-22.229-49.77-49.549-49.77v9.539zm13.191 33.567a6.608 6.608 0 0 1-13.214 0 6.608 6.608 0 0 1 13.214 0z"/></symbol><symbol viewBox="0 0 56.693 56.693" id="twitter" xmlns="http://www.w3.org/2000/svg"><path d="M52.837 15.065a20.11 20.11 0 0 1-5.805 1.591 10.125 10.125 0 0 0 4.444-5.592 20.232 20.232 0 0 1-6.418 2.454 10.093 10.093 0 0 0-7.377-3.192c-5.581 0-10.106 4.525-10.106 10.107 0 .791.089 1.562.262 2.303-8.4-.422-15.848-4.445-20.833-10.56a10.055 10.055 0 0 0-1.368 5.082c0 3.506 1.784 6.6 4.496 8.412a10.078 10.078 0 0 1-4.578-1.265l-.001.128c0 4.896 3.484 8.98 8.108 9.91a10.162 10.162 0 0 1-4.565.172c1.287 4.015 5.019 6.938 9.441 7.019a20.276 20.276 0 0 1-12.552 4.327c-.815 0-1.62-.048-2.411-.142a28.6 28.6 0 0 0 15.493 4.541c18.591 0 28.756-15.4 28.756-28.756 0-.438-.009-.875-.028-1.309a20.47 20.47 0 0 0 5.042-5.23z"/></symbol></svg>