<?xml version="1.0" encoding="utf-8"?><svg xmlns="http://www.w3.org/2000/svg" xmlns:xlink="http://www.w3.org/1999/xlink"><symbol viewBox="0 0 60 60" id="clock" xmlns="http://www.w3.org/2000/svg"><path d="M30 0C13.458 0 0 13.458 0 30s13.458 30 30 30 30-13.458 30-30S46.542 0 30 0zm0 58C14.561 58 2 45.439 2 30S14.561 2 30 2s28 12.561 28 28-12.561 28-28 28z"/><path d="M30 6a1 1 0 0 0-1 1v23H14a1 1 0 1 0 0 2h16a1 1 0 0 0 1-1V7a1 1 0 0 0-1-1z"/></symbol><symbol viewBox="0 0 511.626 511.627" id="comments" xmlns="http://www.w3.org/2000/svg"><path d="M477.364 127.481c-22.839-28.072-53.864-50.248-93.072-66.522-39.208-16.274-82.036-24.41-128.479-24.41-46.442 0-89.269 8.136-128.478 24.41s-70.233 38.446-93.074 66.522C11.419 155.555 0 186.15 0 219.269c0 28.549 8.61 55.299 25.837 80.232 17.227 24.934 40.778 45.874 70.664 62.813-2.096 7.611-4.57 14.842-7.426 21.7-2.855 6.851-5.424 12.467-7.708 16.847-2.286 4.374-5.376 9.23-9.281 14.555-3.899 5.332-6.849 9.093-8.848 11.283a4550.42 4550.42 0 0 0-9.851 10.848c-4.565 5.041-7.517 8.33-8.848 9.853-.193.097-.953.948-2.285 2.574-1.331 1.615-1.999 2.419-1.999 2.419l-1.713 2.57c-.953 1.42-1.381 2.327-1.287 2.703.096.384-.094 1.335-.57 2.854-.477 1.526-.428 2.669.142 3.429v.287c.762 3.234 2.283 5.853 4.567 7.851 2.284 1.992 4.858 2.991 7.71 2.991h1.429c12.375-1.526 23.223-3.613 32.548-6.279 49.87-12.751 93.649-35.782 131.334-69.094 14.274 1.523 28.074 2.283 41.396 2.283 46.442 0 89.271-8.135 128.479-24.414 39.208-16.276 70.233-38.444 93.072-66.517 22.843-28.072 34.263-58.67 34.263-91.789.001-33.114-11.418-63.713-34.261-91.787zm-32.12 164.594c-19.896 22.456-46.733 40.303-80.517 53.529-33.784 13.223-70.093 19.842-108.921 19.842-11.609 0-23.98-.76-37.113-2.286l-16.274-1.708-12.277 10.852c-23.408 20.558-49.582 36.829-78.513 48.821 8.754-15.414 15.416-31.785 19.986-49.102l7.708-27.412-24.838-14.27c-24.744-14.093-43.918-30.793-57.53-50.114-13.61-19.315-20.412-39.638-20.412-60.954 0-26.077 9.945-50.343 29.834-72.803 19.895-22.458 46.729-40.303 80.515-53.531 33.786-13.229 70.089-19.849 108.92-19.849 38.828 0 75.13 6.617 108.914 19.845 33.783 13.229 60.62 31.073 80.517 53.531 19.89 22.46 29.834 46.727 29.834 72.802s-9.944 50.347-29.833 72.807z"/></symbol><symbol viewBox="0 0 92 92" id="dribble" xmlns="http://www.w3.org/2000/svg"><path d="M43.826 33.104C37.033 21.031 29.772 11.19 29.239 10.469 18.283 15.646 10.107 25.737 7.557 37.9c1.031.019 17.403.216 36.269-4.796zm4.893 13.197a57.647 57.647 0 0 1 1.549-.467 131.845 131.845 0 0 0-3.188-6.676c-20.229 6.054-39.643 5.615-40.332 5.598-.012.413-.031.825-.031 1.244 0 10.102 3.816 19.308 10.078 26.267-.012-.013-.027-.034-.027-.034s10.753-19.076 31.951-25.932zM21.855 76.969l.006-.016c-.291-.229-.604-.438-.889-.676.522.418.883.692.883.692zM36.59 7.859l-.104.024c.061-.015.097-.021.097-.021l.007-.003zm35.355 8.659C65.027 10.422 55.947 6.716 46 6.716a39.42 39.42 0 0 0-9.256 1.107c.598.792 7.971 10.589 14.686 22.918 14.812-5.553 20.412-14.062 20.515-14.223zM46 92C20.596 92 0 71.403 0 46 0 20.596 20.596 0 46 0c25.406 0 46 20.596 46 46 0 25.403-20.594 46-46 46zm6.684-39.571c-23.057 8.033-30.668 24.193-30.822 24.524 6.664 5.204 15.029 8.331 24.139 8.331a39.137 39.137 0 0 0 15.335-3.108c-.582-3.444-2.867-15.476-8.392-29.835-.087.03-.173.055-.26.088zm1.767-15.835a116.62 116.62 0 0 1 2.611 5.698c.291.678.572 1.355.848 2.029 13.568-1.706 26.925 1.189 27.362 1.284a39.107 39.107 0 0 0-8.935-24.56c-.079.118-6.381 9.218-21.886 15.549zm5.854 13.929c5.16 14.177 7.25 25.709 7.646 28.059 8.82-5.956 15.088-15.397 16.834-26.351-.781-.252-11.779-3.741-24.48-1.708z"/></symbol><symbol viewBox="0 0 430.113 430.114" id="facebook" xmlns="http://www.w3.org/2000/svg"><path d="M158.081 83.3v59.218h-43.385v72.412h43.385v215.183h89.122V214.936h59.805s5.601-34.721 8.316-72.685H247.54V92.74c0-7.4 9.717-17.354 19.321-17.354h48.557V.001h-66.021C155.878-.004 158.081 72.48 158.081 83.3z"/></symbol><symbol viewBox="0 0 491.858 491.858" id="google" xmlns="http://www.w3.org/2000/svg"><path d="M377.472 224.957H201.319v58.718H308.79c-16.032 51.048-63.714 88.077-120.055 88.077-69.492 0-125.823-56.335-125.823-125.824 0-69.492 56.333-125.823 125.823-125.823 34.994 0 66.645 14.289 89.452 37.346l42.622-46.328c-34.04-33.355-80.65-53.929-132.074-53.929C84.5 57.193 0 141.693 0 245.928s84.5 188.737 188.736 188.737c91.307 0 171.248-64.844 188.737-150.989v-58.718l-.001-.001zm114.386-.1h-36.031v-36.031h-30.886v36.031H388.91v30.883h36.031v36.032h30.886V255.74h36.031z"/></symbol><symbol viewBox="0 0 512 512" id="google-plus" xmlns="http://www.w3.org/2000/svg"><path d="M448 224v-64h-32v64h-64v32h64v64h32v-64h64v-32zm-288 0v64h90.528c-13.216 37.248-48.8 64-90.528 64-52.928 0-96-43.072-96-96s43.072-96 96-96c22.944 0 45.024 8.224 62.176 23.168l42.048-48.256C235.424 109.824 198.432 96 160 96 71.776 96 0 167.776 0 256s71.776 160 160 160 160-71.776 160-160v-32H160z"/></symbol><symbol viewBox="0 0 533.333 533.333" id="pinterest" xmlns="http://www.w3.org/2000/svg"><path d="M266.667 0C119.391 0 0 119.391 0 266.667c0 147.275 119.388 266.666 266.667 266.666 147.275 0 266.667-119.391 266.667-266.666C533.333 119.391 413.942 0 266.667 0zm25.856 356.311c-24.229-1.882-34.397-13.883-53.388-25.421-10.448 54.781-23.21 107.302-61.01 134.734-11.669-82.795 17.132-144.981 30.505-210.997-22.804-38.389 2.744-115.643 50.844-96.601 59.18 23.41-51.25 142.712 22.881 157.613 77.406 15.556 109.004-134.302 61.011-183.035-69.354-70.367-201.874-1.604-185.578 99.144 3.966 24.631 29.412 32.103 10.168 66.095-44.385-9.839-57.63-44.845-55.925-91.517 2.744-76.393 68.638-129.877 134.733-137.274 83.584-9.356 162.035 30.681 172.867 109.311 12.195 88.744-37.732 184.86-127.108 177.948z"/></symbol><symbol viewBox="0 0 448 448" id="plus" xmlns="http://www.w3.org/2000/svg"><path d="M408 184H272a8 8 0 0 1-8-8V40c0-22.09-17.91-40-40-40s-40 17.91-40 40v136a8 8 0 0 1-8 8H40c-22.09 0-40 17.91-40 40s17.91 40 40 40h136a8 8 0 0 1 8 8v136c0 22.09 17.91 40 40 40s40-17.91 40-40V272a8 8 0 0 1 8-8h136c22.09 0 40-17.91 40-40s-17.91-40-40-40zm0 0"/></symbol><symbol viewBox="0 0 511.626 511.627" id="signal" xmlns="http://www.w3.org/2000/svg"><path d="M63.953 401.992H9.135c-2.666 0-4.853.855-6.567 2.567C.859 406.271 0 408.461 0 411.126v54.82c0 2.665.855 4.855 2.568 6.563 1.714 1.718 3.905 2.57 6.567 2.57h54.818c2.663 0 4.853-.853 6.567-2.57 1.712-1.708 2.568-3.898 2.568-6.563v-54.82c0-2.665-.856-4.849-2.568-6.566-1.714-1.712-3.904-2.568-6.567-2.568zM283.225 292.36h-54.818c-2.667 0-4.854.855-6.567 2.566-1.711 1.711-2.57 3.901-2.57 6.563v164.456c0 2.665.856 4.855 2.57 6.563 1.713 1.718 3.899 2.57 6.567 2.57h54.818c2.665 0 4.855-.853 6.563-2.57 1.711-1.708 2.573-3.898 2.573-6.563V301.49c0-2.662-.862-4.853-2.573-6.563-1.707-1.711-3.898-2.567-6.563-2.567zm-109.636 73.091h-54.818c-2.667 0-4.854.855-6.567 2.566-1.711 1.711-2.568 3.901-2.568 6.563v91.358c0 2.669.854 4.859 2.568 6.57 1.713 1.711 3.899 2.566 6.567 2.566h54.818c2.663 0 4.853-.855 6.567-2.566 1.709-1.711 2.568-3.901 2.568-6.57V374.58c0-2.662-.859-4.853-2.568-6.563-1.714-1.71-3.905-2.566-6.567-2.566zm219.268-182.726h-54.819c-2.666 0-4.856.855-6.57 2.568-1.708 1.714-2.563 3.901-2.563 6.567v274.086c0 2.665.855 4.855 2.563 6.563 1.714 1.718 3.904 2.57 6.57 2.57h54.819c2.666 0 4.856-.853 6.563-2.57 1.718-1.708 2.57-3.898 2.57-6.563V191.86c0-2.666-.853-4.853-2.57-6.567-1.707-1.713-3.897-2.568-6.563-2.568zM509.06 39.115c-1.718-1.714-3.901-2.568-6.57-2.568h-54.816c-2.662 0-4.853.854-6.567 2.568-1.714 1.709-2.569 3.899-2.569 6.563v420.268c0 2.665.855 4.855 2.569 6.563 1.715 1.718 3.905 2.57 6.567 2.57h54.816c2.669 0 4.853-.853 6.57-2.57 1.711-1.708 2.566-3.898 2.566-6.563V45.679c0-2.664-.855-4.854-2.566-6.564z"/></symbol><symbol viewBox="0 -47 512.002 512" id="twitter" xmlns="http://www.w3.org/2000/svg"><path d="M191.012 419.043c-22.14 0-44.93-1.793-67.856-5.387-40.379-6.336-81.254-27.457-92.82-33.781L0 363.289l32.844-10.8c35.902-11.805 57.742-19.13 84.777-30.598-27.07-13.11-47.933-36.692-57.976-67.176l-7.641-23.195 6.266.957A113.939 113.939 0 0 1 44 214.883c-12.934-19.645-19.781-43.649-18.324-64.219l1.437-20.246 12.121 4.695a113.316 113.316 0 0 1-10.98-30.777c-5.293-26.36-.863-54.363 12.476-78.852L51.29 6.102l14.12 16.96c44.66 53.649 101.227 85.473 168.363 94.79-2.742-18.903-.687-37.145 6.114-53.497 7.918-19.039 22.004-35.183 40.722-46.69 20.79-12.778 46-18.97 70.989-17.435 26.511 1.63 50.582 11.563 69.699 28.747 9.336-2.426 16.215-5.016 25.512-8.516 5.593-2.106 11.937-4.496 19.875-7.23l29.25-10.079-19.075 54.477a96.355 96.355 0 0 1 3.91-.254l31.235-1.414-18.461 25.23c-1.059 1.446-1.328 1.856-1.703 2.422-1.488 2.242-3.34 5.032-28.68 38.867-6.344 8.473-9.512 19.508-8.922 31.079 2.246 43.968-3.148 83.75-16.043 118.234-12.195 32.625-31.093 60.617-56.164 83.2-31.023 27.937-70.582 47.066-117.582 56.847-23.054 4.797-47.812 7.203-73.437 7.203zm0 0"/></symbol><symbol viewBox="0 0 284.929 284.929" id="up" xmlns="http://www.w3.org/2000/svg"><path d="M17.128 167.872c1.903 1.902 4.093 2.854 6.567 2.854s4.664-.952 6.567-2.854L142.466 55.666l112.208 112.206c1.902 1.902 4.093 2.854 6.563 2.854 2.478 0 4.668-.952 6.57-2.854l14.274-14.277c1.902-1.902 2.847-4.093 2.847-6.563 0-2.475-.951-4.665-2.847-6.567L149.028 7.419c-1.901-1.906-4.088-2.853-6.562-2.853s-4.665.95-6.567 2.853L2.856 140.464C.95 142.367 0 144.554 0 147.034c0 2.468.953 4.658 2.856 6.561l14.272 14.277z"/><path d="M149.028 117.055c-1.901-1.906-4.088-2.856-6.562-2.856s-4.665.953-6.567 2.856L2.856 250.1C.95 252.003 0 254.192 0 256.67c0 2.472.953 4.661 2.856 6.564l14.272 14.276c1.903 1.903 4.093 2.848 6.567 2.848s4.664-.951 6.567-2.848l112.204-112.209L254.674 277.51c1.902 1.903 4.093 2.852 6.563 2.852 2.478 0 4.668-.948 6.57-2.852l14.274-14.276c1.902-1.903 2.847-4.093 2.847-6.564 0-2.478-.951-4.667-2.847-6.57L149.028 117.055z"/></symbol><symbol viewBox="0 0 456.795 456.795" id="views" xmlns="http://www.w3.org/2000/svg"><path d="M448.947 218.475c-.922-1.168-23.055-28.933-61-56.81-50.705-37.253-105.877-56.944-159.551-56.944-53.672 0-108.844 19.691-159.551 56.944-37.944 27.876-60.077 55.642-61 56.81L0 228.397l7.846 9.923c.923 1.168 23.056 28.934 61 56.811 50.707 37.252 105.879 56.943 159.551 56.943 53.673 0 108.845-19.691 159.55-56.943 37.945-27.877 60.078-55.643 61-56.811l7.848-9.923-7.848-9.922zm-220.551 96.564c-47.774 0-86.642-38.867-86.642-86.642 0-7.485.954-14.751 2.747-21.684l-19.781-3.329a106.44 106.44 0 0 0-2.966 25.013c0 30.86 13.182 58.696 34.204 78.187-27.061-9.996-50.072-24.023-67.439-36.709-21.516-15.715-37.641-31.609-46.834-41.478 9.197-9.872 25.32-25.764 46.834-41.478 17.367-12.686 40.379-26.713 67.439-36.71l13.27 14.958c15.498-14.512 36.312-23.412 59.168-23.412 47.774 0 86.641 38.867 86.641 86.642s-38.867 86.642-86.641 86.642zm139.877-45.164c-17.369 12.686-40.379 26.713-67.439 36.709 21.021-19.49 34.203-47.326 34.203-78.188s-13.182-58.697-34.203-78.188c27.061 9.997 50.07 24.024 67.439 36.71 21.516 15.715 37.641 31.609 46.834 41.477-9.197 9.874-25.32 25.767-46.834 41.48z"/><path d="M173.261 211.555a57.616 57.616 0 0 0-2.507 16.843c0 31.834 25.807 57.642 57.642 57.642 31.834 0 57.641-25.807 57.641-57.642s-25.807-57.642-57.641-57.642c-15.506 0-29.571 6.134-39.932 16.094l28.432 32.048-43.635-7.343z"/></symbol></svg>